<svg width="161" height="73" viewBox="0 0 161 73" fill="none" xmlns="http://www.w3.org/2000/svg">
<g id="Group 406147">
<path id="Arrow 79" d="M156.646 72.3536C156.842 72.5488 157.158 72.5488 157.354 72.3536L160.536 69.1716C160.731 68.9763 160.731 68.6597 160.536 68.4645C160.34 68.2692 160.024 68.2692 159.828 68.4645L157 71.2929L154.172 68.4645C153.976 68.2692 153.66 68.2692 153.464 68.4645C153.269 68.6597 153.269 68.9763 153.464 69.1716L156.646 72.3536ZM5 3.5H153V2.5H5V3.5ZM156.5 7V72H157.5V7H156.5ZM153 3.5C154.933 3.5 156.5 5.067 156.5 7H157.5C157.5 4.51472 155.485 2.5 153 2.5V3.5Z" fill="#ADB5BD"/>
<circle id="Ellipse 28" cx="3" cy="3" r="3" transform="rotate(-90 3 3)" fill="#ADB5BD"/>
</g>
</svg>
