<svg width="161" height="31" viewBox="0 0 161 31" fill="none" xmlns="http://www.w3.org/2000/svg">
<g id="Group 406146">
<path id="Arrow 76" d="M156.646 30.3536C156.842 30.5488 157.158 30.5488 157.354 30.3536L160.536 27.1716C160.731 26.9763 160.731 26.6597 160.536 26.4645C160.34 26.2692 160.024 26.2692 159.828 26.4645L157 29.2929L154.172 26.4645C153.976 26.2692 153.66 26.2692 153.464 26.4645C153.269 26.6597 153.269 26.9763 153.464 27.1716L156.646 30.3536ZM5 3.5H153V2.5H5V3.5ZM156.5 7V30H157.5V7H156.5ZM153 3.5C154.933 3.5 156.5 5.067 156.5 7H157.5C157.5 4.51472 155.485 2.5 153 2.5V3.5Z" fill="#ADB5BD"/>
<circle id="Ellipse 25" cx="3" cy="3" r="3" transform="rotate(-90 3 3)" fill="#ADB5BD"/>
</g>
</svg>
