<svg width="187" height="87" viewBox="0 0 187 87" fill="none" xmlns="http://www.w3.org/2000/svg">
<g id="Group 405748">
<path id="Arrow 76" d="M182.646 86.3536C182.842 86.5488 183.158 86.5488 183.354 86.3536L186.536 83.1716C186.731 82.9763 186.731 82.6597 186.536 82.4645C186.34 82.2692 186.024 82.2692 185.828 82.4645L183 85.2929L180.172 82.4645C179.976 82.2692 179.66 82.2692 179.464 82.4645C179.269 82.6597 179.269 82.9763 179.464 83.1716L182.646 86.3536ZM2.5 5L2.5 65L3.5 65L3.5 5L2.5 5ZM7 69.5L179 69.5L179 68.5L7 68.5L7 69.5ZM182.5 73L182.5 86L183.5 86L183.5 73L182.5 73ZM179 69.5C180.933 69.5 182.5 71.067 182.5 73L183.5 73C183.5 70.5147 181.485 68.5 179 68.5L179 69.5ZM2.5 65C2.5 67.4853 4.51473 69.5 7 69.5L7 68.5C5.067 68.5 3.5 66.933 3.5 65L2.5 65Z" fill="#ADB5BD"/>
<circle id="Ellipse 25" cx="3" cy="3" r="3" fill="#ADB5BD"/>
</g>
</svg>
